<svg width="50" height="50" viewBox="0 0 50 50" fill="none" xmlns="http://www.w3.org/2000/svg">
<g id="Group 1000005037">
<rect id="Rectangle 558" width="50" height="50" rx="13" fill="#F5F5F5"/>
<path id="Union" fill-rule="evenodd" clip-rule="evenodd" d="M36.8593 12.5H28.2405C27.9379 12.5003 27.6479 12.6206 27.434 12.8345C27.2201 13.0484 27.0998 13.3384 27.0995 13.6409V19.3529C27.0998 19.6554 27.2201 19.9455 27.434 20.1594C27.6479 20.3733 27.9379 20.4936 28.2405 20.4939H36.8593C37.1618 20.4936 37.4518 20.3733 37.6657 20.1594C37.8796 19.9455 37.9999 19.6554 38.0002 19.3529V13.6409C37.9999 13.3384 37.8796 13.0484 37.6657 12.8345C37.4518 12.6206 37.1618 12.5003 36.8593 12.5ZM37.2735 19.3529C37.2734 19.4627 37.2297 19.5681 37.1521 19.6457C37.0744 19.7234 36.9691 19.7671 36.8593 19.7671H28.2405C28.1306 19.7671 28.0253 19.7234 27.9477 19.6457C27.87 19.5681 27.8263 19.4627 27.8262 19.3529V13.6409C27.8263 13.5311 27.87 13.4258 27.9477 13.3481C28.0253 13.2705 28.1306 13.2268 28.2405 13.2267H36.8593C36.9691 13.2268 37.0744 13.2705 37.1521 13.3481C37.2297 13.4258 37.2734 13.5311 37.2735 13.6409V19.3529ZM34.5584 16.1962L31.6515 14.3794C31.5965 14.3451 31.5333 14.326 31.4685 14.3243C31.4037 14.3226 31.3396 14.3383 31.2828 14.3698C31.2261 14.4012 31.1788 14.4473 31.1459 14.5032C31.113 14.559 31.0956 14.6227 31.0956 14.6876V18.3212C31.0956 18.386 31.113 18.4497 31.1459 18.5056C31.1788 18.5615 31.2261 18.6075 31.2828 18.639C31.3396 18.6704 31.4037 18.6861 31.4685 18.6844C31.5333 18.6827 31.5965 18.6637 31.6515 18.6293L34.5584 16.8125C34.611 16.7799 34.6544 16.7344 34.6845 16.6804C34.7146 16.6263 34.7304 16.5655 34.7304 16.5036C34.7304 16.4418 34.7146 16.3809 34.6845 16.3269C34.6544 16.2728 34.611 16.2274 34.5584 16.1948V16.1962ZM31.8223 17.6671V15.3416L33.6802 16.5044L31.8223 17.6671ZM35.5173 32.6048H37.8387V28.2647H35.3154L32.025 28.2748L32.0048 28.2647H31.9847C31.8534 28.2546 31.7222 28.2546 31.591 28.2748C30.9955 28.3454 30.4707 28.6583 30.1073 29.0923L25.6865 33.382C25.4947 33.5738 25.3837 33.7655 25.3029 33.9977C25.2525 34.1894 25.2525 34.4216 25.3332 34.6134C25.3736 34.795 25.4846 34.9969 25.636 35.1483C26.0902 35.653 26.8977 35.6631 27.4023 35.1988L29.8247 32.8269L30.2082 33.2508L27.7859 35.6227C27.1399 36.2787 25.9489 36.309 25.2928 35.653C25.0708 35.4208 24.8689 34.9262 24.7983 34.6134L19.8425 34.6033C19.146 34.6033 18.4496 35.2492 18.4496 35.9457C18.4395 36.6421 18.8634 37.2982 19.8223 37.2982L28.3107 37.3184C28.7649 37.3184 29.2696 37.1266 29.6531 36.8238L34.3263 33.2911L35.5173 32.6048ZM25.3332 22.5115L30.289 22.5014C30.9854 22.5014 31.6819 23.1474 31.6718 23.8338C31.6819 24.5201 31.2579 25.1762 30.2991 25.1762L21.8106 25.1963C21.3565 25.1963 20.8518 25.0046 20.4682 24.7018L15.7951 21.1792L14.5031 20.5938H12V16.2537H14.4224L18.1064 16.173L18.1266 16.1629H18.1468C18.278 16.1528 18.4092 16.1528 18.5404 16.173C19.146 16.2537 19.6709 16.5565 20.0342 16.9905L24.445 21.2802C24.6368 21.4719 24.7478 21.6637 24.8285 21.8959C24.879 22.0876 24.879 22.3198 24.7983 22.5115C24.7579 22.6932 24.6469 22.8951 24.4955 23.0465C24.0413 23.5511 23.2338 23.5612 22.7291 23.0969L20.3068 20.725L19.9232 21.149L22.3456 23.5209C22.9916 24.1769 24.1826 24.2072 24.8386 23.5511C25.0607 23.319 25.2625 22.8244 25.3332 22.5115ZM18.5707 32.4837C19.7213 32.4837 20.66 31.5551 20.66 30.3944C20.66 29.2337 19.7213 28.3051 18.5707 28.3051C17.4201 28.3051 16.4814 29.2337 16.4814 30.3944C16.4814 31.545 17.4201 32.4837 18.5707 32.4837ZM18.7726 30.1723C19.2066 30.3338 19.4387 30.5559 19.4387 30.9091C19.4387 31.2624 19.1662 31.545 18.7827 31.6258V31.979H18.3789V31.6459C18.1771 31.6459 17.8339 31.5652 17.7027 31.5046L17.8238 31.0403C17.9752 31.1211 18.2174 31.2018 18.4597 31.2018C18.712 31.2018 18.8634 31.0908 18.8634 30.9293C18.8634 30.7678 18.7524 30.6871 18.4496 30.5761C18.0257 30.4347 17.733 30.2127 17.733 29.8392C17.733 29.486 17.9651 29.2135 18.3688 29.1125V28.7694H18.7726V29.1024C18.9744 29.1024 19.2066 29.1731 19.3479 29.2337L19.2066 29.6878C19.1057 29.6374 18.924 29.5768 18.6817 29.5768C18.4395 29.5768 18.3083 29.6878 18.3083 29.8191C18.3083 29.9806 18.4496 30.0411 18.7726 30.1723ZM24.8184 33.4123V27.3563H12.3028V33.4123H24.8184ZM14.1297 27.9619H22.9815C23.1228 28.5675 23.6072 29.0621 24.2229 29.2135V31.5349C23.6173 31.6863 23.1531 32.191 22.9916 32.6956H14.1297C13.9783 32.191 13.514 31.6964 12.9084 31.5349V29.2135C13.514 29.0621 13.9682 28.5675 14.1297 27.9619Z" fill="black"/>
</g>
</svg>
